<svg width="173" height="107" viewBox="0 0 173 107" fill="none" xmlns="http://www.w3.org/2000/svg">
<mask id="mask0_139_998" style="mask-type:alpha" maskUnits="userSpaceOnUse" x="0" y="0" width="173" height="87">
<rect width="173" height="86.5" fill="#D9D9D9"/>
</mask>
<g mask="url(#mask0_139_998)">
<path d="M0 86.5C1.02507e-06 74.7746 2.38388 63.1716 7.0068 52.396C11.6297 41.6204 18.3952 31.8972 26.892 23.8171C35.3889 15.7371 45.4399 9.46883 56.4342 5.3933C67.4285 1.31777 79.1366 -0.479971 90.8472 0.109306L89.9778 17.3874C80.6093 16.916 71.2428 18.3542 62.4473 21.6146C53.6519 24.8751 45.6111 29.8896 38.8136 36.3537C32.0161 42.8178 26.6038 50.5963 22.9054 59.2168C19.2071 67.8373 17.3 77.1197 17.3 86.5H0Z" fill="#5E3FBE"/>
</g>
<mask id="mask1_139_998" style="mask-type:alpha" maskUnits="userSpaceOnUse" x="0" y="0" width="173" height="87">
<rect width="173" height="86.5" fill="#D9D9D9"/>
</mask>
<g mask="url(#mask1_139_998)">
<path d="M92.2541 0.191596C103.588 0.947233 114.663 3.92791 124.845 8.96343C135.027 13.999 144.118 20.9907 151.598 29.5395C159.078 38.0883 164.801 48.0267 168.441 58.7873C172.08 69.5479 173.564 80.92 172.808 92.2542C172.053 103.588 169.072 114.663 164.037 124.845C159.001 135.027 152.009 144.118 143.46 151.598C134.912 159.078 124.973 164.801 114.213 168.441C103.452 172.08 92.08 173.564 80.7458 172.808L81.8966 155.547C90.964 156.151 100.062 154.964 108.67 152.052C117.279 149.141 125.229 144.563 132.068 138.578C138.907 132.594 144.501 125.322 148.529 117.176C152.558 109.03 154.942 100.171 155.547 91.1033C156.151 82.036 154.964 72.9383 152.052 64.3299C149.141 55.7214 144.563 47.7707 138.578 40.9316C132.594 34.0926 125.322 28.4992 117.176 24.4707C109.03 20.4423 100.171 18.0578 91.1033 17.4533L92.2541 0.191596Z" fill="#FC823E"/>
</g>
<rect x="28" y="90.0248" width="118" height="16" rx="2" fill="#CAEDDD"/>
<path d="M36.918 96.0951L35.2188 101.025H34.1914L36.332 95.3373H36.9883L36.918 96.0951ZM38.3398 101.025L36.6367 96.0951L36.5625 95.3373H37.2227L39.3711 101.025H38.3398ZM38.2578 98.9154V99.6927H35.1641V98.9154H38.2578ZM43.5703 100.247V101.025H40.7148V100.247H43.5703ZM40.9883 95.3373V101.025H40.0078V95.3373H40.9883ZM47.8906 100.247V101.025H45.0352V100.247H47.8906ZM45.3086 95.3373V101.025H44.3281V95.3373H45.3086ZM52.9258 98.0248V98.3373C52.9258 98.767 52.8698 99.1524 52.7578 99.4935C52.6458 99.8347 52.4857 100.125 52.2773 100.365C52.0716 100.604 51.8242 100.788 51.5352 100.915C51.2461 101.04 50.9258 101.103 50.5742 101.103C50.2253 101.103 49.9062 101.04 49.6172 100.915C49.3307 100.788 49.082 100.604 48.8711 100.365C48.6602 100.125 48.4961 99.8347 48.3789 99.4935C48.2643 99.1524 48.207 98.767 48.207 98.3373V98.0248C48.207 97.5951 48.2643 97.211 48.3789 96.8724C48.4935 96.5313 48.6549 96.2409 48.8633 96.0013C49.0742 95.7592 49.3229 95.5756 49.6094 95.4506C49.8984 95.323 50.2174 95.2592 50.5664 95.2592C50.918 95.2592 51.2383 95.323 51.5273 95.4506C51.8164 95.5756 52.0651 95.7592 52.2734 96.0013C52.4818 96.2409 52.6419 96.5313 52.7539 96.8724C52.8685 97.211 52.9258 97.5951 52.9258 98.0248ZM51.9453 98.3373V98.017C51.9453 97.6993 51.9141 97.4193 51.8516 97.1771C51.7917 96.9323 51.7018 96.7279 51.582 96.5638C51.4648 96.3972 51.3203 96.2722 51.1484 96.1888C50.9766 96.1029 50.7826 96.0599 50.5664 96.0599C50.3503 96.0599 50.1576 96.1029 49.9883 96.1888C49.819 96.2722 49.6745 96.3972 49.5547 96.5638C49.4375 96.7279 49.3477 96.9323 49.2852 97.1771C49.2227 97.4193 49.1914 97.6993 49.1914 98.017V98.3373C49.1914 98.655 49.2227 98.9362 49.2852 99.181C49.3477 99.4258 49.4388 99.6329 49.5586 99.8021C49.681 99.9688 49.8268 100.095 49.9961 100.181C50.1654 100.264 50.3581 100.306 50.5742 100.306C50.793 100.306 50.987 100.264 51.1562 100.181C51.3255 100.095 51.4688 99.9688 51.5859 99.8021C51.7031 99.6329 51.7917 99.4258 51.8516 99.181C51.9141 98.9362 51.9453 98.655 51.9453 98.3373ZM55.332 99.7474L56.4648 95.3373H57.0586L56.9922 96.474L55.7812 101.025H55.1641L55.332 99.7474ZM54.4844 95.3373L55.4023 99.7123L55.4844 101.025H54.8281L53.5117 95.3373H54.4844ZM58.3438 99.7006L59.25 95.3373H60.2266L58.9102 101.025H58.2539L58.3438 99.7006ZM57.2891 95.3373L58.4102 99.7592L58.5742 101.025H57.957L56.7656 96.474L56.7031 95.3373H57.2891ZM62.9961 96.0951L61.2969 101.025H60.2695L62.4102 95.3373H63.0664L62.9961 96.0951ZM64.418 101.025L62.7148 96.0951L62.6406 95.3373H63.3008L65.4492 101.025H64.418ZM64.3359 98.9154V99.6927H61.2422V98.9154H64.3359ZM70.5977 95.3373V101.025H69.6172L67.0664 96.9506V101.025H66.0859V95.3373H67.0664L69.625 99.4193V95.3373H70.5977ZM75.125 99.1732H76.1016C76.0703 99.5456 75.9661 99.8776 75.7891 100.169C75.612 100.458 75.3633 100.686 75.043 100.853C74.7227 101.02 74.3333 101.103 73.875 101.103C73.5234 101.103 73.207 101.04 72.9258 100.915C72.6445 100.788 72.4036 100.608 72.2031 100.376C72.0026 100.142 71.849 99.8594 71.7422 99.5287C71.638 99.198 71.5859 98.8282 71.5859 98.4193V97.9467C71.5859 97.5378 71.6393 97.168 71.7461 96.8373C71.8555 96.5066 72.0117 96.224 72.2148 95.9896C72.418 95.7526 72.6615 95.5717 72.9453 95.4467C73.2318 95.3217 73.5534 95.2592 73.9102 95.2592C74.3633 95.2592 74.7461 95.3425 75.0586 95.5092C75.3711 95.6758 75.6133 95.9063 75.7852 96.2006C75.9596 96.4948 76.0664 96.8321 76.1055 97.2123H75.1289C75.1029 96.9675 75.0456 96.7579 74.957 96.5834C74.8711 96.4089 74.7435 96.2761 74.5742 96.1849C74.4049 96.0912 74.1836 96.0443 73.9102 96.0443C73.6862 96.0443 73.4909 96.086 73.3242 96.1693C73.1576 96.2526 73.0182 96.375 72.9062 96.5365C72.7943 96.698 72.7096 96.8972 72.6523 97.1342C72.5977 97.3685 72.5703 97.6368 72.5703 97.9388V98.4193C72.5703 98.7058 72.5951 98.9662 72.6445 99.2006C72.6966 99.4323 72.7747 99.6316 72.8789 99.7982C72.9857 99.9649 73.1211 100.094 73.2852 100.185C73.4492 100.276 73.6458 100.322 73.875 100.322C74.1536 100.322 74.3789 100.277 74.5508 100.189C74.7253 100.1 74.8568 99.9714 74.9453 99.8021C75.0365 99.6302 75.0964 99.4206 75.125 99.1732ZM80.7148 100.247V101.025H77.6953V100.247H80.7148ZM77.9727 95.3373V101.025H76.9922V95.3373H77.9727ZM80.3203 97.7123V98.4779H77.6953V97.7123H80.3203ZM80.6953 95.3373V96.1185H77.6953V95.3373H80.6953ZM86.8672 99.1732H87.8438C87.8125 99.5456 87.7083 99.8776 87.5312 100.169C87.3542 100.458 87.1055 100.686 86.7852 100.853C86.4648 101.02 86.0755 101.103 85.6172 101.103C85.2656 101.103 84.9492 101.04 84.668 100.915C84.3867 100.788 84.1458 100.608 83.9453 100.376C83.7448 100.142 83.5911 99.8594 83.4844 99.5287C83.3802 99.198 83.3281 98.8282 83.3281 98.4193V97.9467C83.3281 97.5378 83.3815 97.168 83.4883 96.8373C83.5977 96.5066 83.7539 96.224 83.957 95.9896C84.1602 95.7526 84.4036 95.5717 84.6875 95.4467C84.974 95.3217 85.2956 95.2592 85.6523 95.2592C86.1055 95.2592 86.4883 95.3425 86.8008 95.5092C87.1133 95.6758 87.3555 95.9063 87.5273 96.2006C87.7018 96.4948 87.8086 96.8321 87.8477 97.2123H86.8711C86.8451 96.9675 86.7878 96.7579 86.6992 96.5834C86.6133 96.4089 86.4857 96.2761 86.3164 96.1849C86.1471 96.0912 85.9258 96.0443 85.6523 96.0443C85.4284 96.0443 85.2331 96.086 85.0664 96.1693C84.8997 96.2526 84.7604 96.375 84.6484 96.5365C84.5365 96.698 84.4518 96.8972 84.3945 97.1342C84.3398 97.3685 84.3125 97.6368 84.3125 97.9388V98.4193C84.3125 98.7058 84.3372 98.9662 84.3867 99.2006C84.4388 99.4323 84.5169 99.6316 84.6211 99.7982C84.7279 99.9649 84.8633 100.094 85.0273 100.185C85.1914 100.276 85.388 100.322 85.6172 100.322C85.8958 100.322 86.1211 100.277 86.293 100.189C86.4674 100.1 86.599 99.9714 86.6875 99.8021C86.7786 99.6302 86.8385 99.4206 86.8672 99.1732ZM93.2695 98.0248V98.3373C93.2695 98.767 93.2135 99.1524 93.1016 99.4935C92.9896 99.8347 92.8294 100.125 92.6211 100.365C92.4154 100.604 92.168 100.788 91.8789 100.915C91.5898 101.04 91.2695 101.103 90.918 101.103C90.569 101.103 90.25 101.04 89.9609 100.915C89.6745 100.788 89.4258 100.604 89.2148 100.365C89.0039 100.125 88.8398 99.8347 88.7227 99.4935C88.6081 99.1524 88.5508 98.767 88.5508 98.3373V98.0248C88.5508 97.5951 88.6081 97.211 88.7227 96.8724C88.8372 96.5313 88.9987 96.2409 89.207 96.0013C89.418 95.7592 89.6667 95.5756 89.9531 95.4506C90.2422 95.323 90.5612 95.2592 90.9102 95.2592C91.2617 95.2592 91.582 95.323 91.8711 95.4506C92.1602 95.5756 92.4089 95.7592 92.6172 96.0013C92.8255 96.2409 92.9857 96.5313 93.0977 96.8724C93.2122 97.211 93.2695 97.5951 93.2695 98.0248ZM92.2891 98.3373V98.017C92.2891 97.6993 92.2578 97.4193 92.1953 97.1771C92.1354 96.9323 92.0456 96.7279 91.9258 96.5638C91.8086 96.3972 91.6641 96.2722 91.4922 96.1888C91.3203 96.1029 91.1263 96.0599 90.9102 96.0599C90.694 96.0599 90.5013 96.1029 90.332 96.1888C90.1628 96.2722 90.0182 96.3972 89.8984 96.5638C89.7812 96.7279 89.6914 96.9323 89.6289 97.1771C89.5664 97.4193 89.5352 97.6993 89.5352 98.017V98.3373C89.5352 98.655 89.5664 98.9362 89.6289 99.181C89.6914 99.4258 89.7826 99.6329 89.9023 99.8021C90.0247 99.9688 90.1706 100.095 90.3398 100.181C90.5091 100.264 90.7018 100.306 90.918 100.306C91.1367 100.306 91.3307 100.264 91.5 100.181C91.6693 100.095 91.8125 99.9688 91.9297 99.8021C92.0469 99.6329 92.1354 99.4258 92.1953 99.181C92.2578 98.9362 92.2891 98.655 92.2891 98.3373ZM98.7617 95.3373V101.025H97.7812L95.2305 96.9506V101.025H94.25V95.3373H95.2305L97.7891 99.4193V95.3373H98.7617ZM102.922 99.5599C102.922 99.4427 102.904 99.3386 102.867 99.2474C102.833 99.1563 102.772 99.073 102.684 98.9974C102.595 98.9219 102.47 98.849 102.309 98.7787C102.15 98.7058 101.947 98.6316 101.699 98.556C101.428 98.4727 101.178 98.3802 100.949 98.2787C100.723 98.1745 100.525 98.0547 100.355 97.9193C100.186 97.7813 100.055 97.6237 99.9609 97.4467C99.8672 97.267 99.8203 97.0599 99.8203 96.8256C99.8203 96.5938 99.8685 96.3829 99.9648 96.1927C100.064 96.0026 100.203 95.8386 100.383 95.7006C100.565 95.5599 100.78 95.4519 101.027 95.3763C101.275 95.2982 101.548 95.2592 101.848 95.2592C102.27 95.2592 102.633 95.3373 102.938 95.4935C103.245 95.6498 103.48 95.8594 103.645 96.1224C103.811 96.3855 103.895 96.6758 103.895 96.9935H102.922C102.922 96.806 102.882 96.6407 102.801 96.4974C102.723 96.3516 102.603 96.237 102.441 96.1537C102.283 96.0704 102.081 96.0287 101.836 96.0287C101.604 96.0287 101.411 96.0638 101.258 96.1342C101.104 96.2045 100.99 96.2995 100.914 96.4193C100.839 96.5391 100.801 96.6745 100.801 96.8256C100.801 96.9323 100.826 97.03 100.875 97.1185C100.924 97.2045 101 97.2852 101.102 97.3607C101.203 97.4336 101.331 97.5026 101.484 97.5677C101.638 97.6329 101.819 97.6954 102.027 97.7552C102.342 97.849 102.617 97.9532 102.852 98.0677C103.086 98.1797 103.281 98.3073 103.438 98.4506C103.594 98.5938 103.711 98.7566 103.789 98.9388C103.867 99.1185 103.906 99.323 103.906 99.5521C103.906 99.7917 103.858 100.008 103.762 100.201C103.665 100.391 103.527 100.553 103.348 100.689C103.171 100.822 102.957 100.925 102.707 100.997C102.46 101.068 102.184 101.103 101.879 101.103C101.605 101.103 101.336 101.066 101.07 100.994C100.807 100.921 100.568 100.81 100.352 100.661C100.135 100.51 99.9635 100.323 99.8359 100.099C99.7083 99.8724 99.6445 99.6081 99.6445 99.306H100.625C100.625 99.4909 100.656 99.6485 100.719 99.7787C100.784 99.9089 100.874 100.016 100.988 100.099C101.103 100.18 101.236 100.24 101.387 100.279C101.54 100.318 101.704 100.337 101.879 100.337C102.108 100.337 102.299 100.305 102.453 100.24C102.609 100.175 102.727 100.083 102.805 99.9662C102.883 99.849 102.922 99.7136 102.922 99.5599ZM107.965 95.3373H108.941V99.1381C108.941 99.5704 108.848 99.9323 108.66 100.224C108.473 100.516 108.217 100.736 107.895 100.884C107.574 101.03 107.216 101.103 106.82 101.103C106.411 101.103 106.047 101.03 105.727 100.884C105.406 100.736 105.154 100.516 104.969 100.224C104.786 99.9323 104.695 99.5704 104.695 99.1381V95.3373H105.672V99.1381C105.672 99.4115 105.719 99.6368 105.812 99.8138C105.906 99.9883 106.039 100.117 106.211 100.201C106.383 100.284 106.586 100.326 106.82 100.326C107.055 100.326 107.257 100.284 107.426 100.201C107.598 100.117 107.73 99.9883 107.824 99.8138C107.918 99.6368 107.965 99.4115 107.965 99.1381V95.3373ZM110.406 95.3373H111.281L112.926 99.724L114.566 95.3373H115.441L113.27 101.025H112.574L110.406 95.3373ZM110.008 95.3373H110.84L110.984 99.1342V101.025H110.008V95.3373ZM115.008 95.3373H115.844V101.025H114.863V99.1342L115.008 95.3373ZM119.168 98.9037H117.688V98.1263H119.168C119.426 98.1263 119.634 98.0847 119.793 98.0013C119.952 97.918 120.068 97.8034 120.141 97.6576C120.216 97.5092 120.254 97.3399 120.254 97.1498C120.254 96.9701 120.216 96.8021 120.141 96.6459C120.068 96.487 119.952 96.3594 119.793 96.2631C119.634 96.1667 119.426 96.1185 119.168 96.1185H117.988V101.025H117.008V95.3373H119.168C119.608 95.3373 119.982 95.4154 120.289 95.5717C120.599 95.7253 120.835 95.9388 120.996 96.2123C121.158 96.4831 121.238 96.793 121.238 97.142C121.238 97.5092 121.158 97.8243 120.996 98.0873C120.835 98.3503 120.599 98.5521 120.289 98.6927C119.982 98.8334 119.608 98.9037 119.168 98.9037ZM124.457 95.3373V101.025H123.484V95.3373H124.457ZM126.242 95.3373V96.1185H121.715V95.3373H126.242ZM128.039 95.3373V101.025H127.059V95.3373H128.039ZM133.793 98.0248V98.3373C133.793 98.767 133.737 99.1524 133.625 99.4935C133.513 99.8347 133.353 100.125 133.145 100.365C132.939 100.604 132.691 100.788 132.402 100.915C132.113 101.04 131.793 101.103 131.441 101.103C131.092 101.103 130.773 101.04 130.484 100.915C130.198 100.788 129.949 100.604 129.738 100.365C129.527 100.125 129.363 99.8347 129.246 99.4935C129.132 99.1524 129.074 98.767 129.074 98.3373V98.0248C129.074 97.5951 129.132 97.211 129.246 96.8724C129.361 96.5313 129.522 96.2409 129.73 96.0013C129.941 95.7592 130.19 95.5756 130.477 95.4506C130.766 95.323 131.085 95.2592 131.434 95.2592C131.785 95.2592 132.105 95.323 132.395 95.4506C132.684 95.5756 132.932 95.7592 133.141 96.0013C133.349 96.2409 133.509 96.5313 133.621 96.8724C133.736 97.211 133.793 97.5951 133.793 98.0248ZM132.812 98.3373V98.017C132.812 97.6993 132.781 97.4193 132.719 97.1771C132.659 96.9323 132.569 96.7279 132.449 96.5638C132.332 96.3972 132.188 96.2722 132.016 96.1888C131.844 96.1029 131.65 96.0599 131.434 96.0599C131.217 96.0599 131.025 96.1029 130.855 96.1888C130.686 96.2722 130.542 96.3972 130.422 96.5638C130.305 96.7279 130.215 96.9323 130.152 97.1771C130.09 97.4193 130.059 97.6993 130.059 98.017V98.3373C130.059 98.655 130.09 98.9362 130.152 99.181C130.215 99.4258 130.306 99.6329 130.426 99.8021C130.548 99.9688 130.694 100.095 130.863 100.181C131.033 100.264 131.225 100.306 131.441 100.306C131.66 100.306 131.854 100.264 132.023 100.181C132.193 100.095 132.336 99.9688 132.453 99.8021C132.57 99.6329 132.659 99.4258 132.719 99.181C132.781 98.9362 132.812 98.655 132.812 98.3373ZM139.285 95.3373V101.025H138.305L135.754 96.9506V101.025H134.773V95.3373H135.754L138.312 99.4193V95.3373H139.285Z" fill="#25A25A"/>
<path d="M31.5077 26.9833H32.057C32.0394 27.1927 31.9808 27.3795 31.8812 27.5436C31.7816 27.7062 31.6417 27.8344 31.4616 27.9281C31.2814 28.0219 31.0624 28.0687 30.8046 28.0687C30.6068 28.0687 30.4288 28.0336 30.2706 27.9633C30.1124 27.8915 29.9769 27.7904 29.8641 27.66C29.7513 27.5282 29.6649 27.3693 29.6049 27.1832C29.5463 26.9972 29.517 26.7892 29.517 26.5592V26.2933C29.517 26.0634 29.547 25.8553 29.6071 25.6693C29.6686 25.4833 29.7565 25.3243 29.8707 25.1925C29.985 25.0592 30.122 24.9574 30.2816 24.8871C30.4428 24.8168 30.6237 24.7816 30.8243 24.7816C31.0792 24.7816 31.2946 24.8285 31.4703 24.9222C31.6461 25.016 31.7824 25.1456 31.879 25.3112C31.9772 25.4767 32.0372 25.6664 32.0592 25.8802H31.5099C31.4952 25.7426 31.463 25.6246 31.4132 25.5265C31.3649 25.4283 31.2931 25.3536 31.1979 25.3024C31.1027 25.2496 30.9782 25.2233 30.8243 25.2233C30.6984 25.2233 30.5885 25.2467 30.4948 25.2936C30.401 25.3405 30.3226 25.4093 30.2596 25.5001C30.1967 25.5909 30.1491 25.703 30.1168 25.8363C30.0861 25.9681 30.0707 26.119 30.0707 26.2889V26.5592C30.0707 26.7203 30.0846 26.8668 30.1124 26.9987C30.1417 27.129 30.1857 27.2411 30.2443 27.3348C30.3043 27.4286 30.3805 27.5011 30.4728 27.5524C30.5651 27.6036 30.6757 27.6293 30.8046 27.6293C30.9613 27.6293 31.088 27.6044 31.1847 27.5546C31.2828 27.5048 31.3568 27.4323 31.4066 27.337C31.4579 27.2404 31.4916 27.1224 31.5077 26.9833ZM33.8038 25.2518L32.848 28.0248H32.2701L33.4742 24.8256H33.8434L33.8038 25.2518ZM34.6036 28.0248L33.6456 25.2518L33.6039 24.8256H33.9752L35.1837 28.0248H34.6036ZM34.5575 26.8383V27.2755H32.8173V26.8383H34.5575ZM36.7306 24.3136V24.9706H36.3922V24.3136H36.7306ZM36.6888 27.9017V28.4906H36.3527V27.9017H36.6888ZM37.0206 27.192C37.0206 27.1071 37.0031 27.0331 36.9679 26.9701C36.9342 26.9056 36.8785 26.8478 36.8009 26.7965C36.7233 26.7438 36.6193 26.6947 36.4889 26.6493C36.3014 26.5834 36.1373 26.5094 35.9967 26.4274C35.8575 26.3439 35.7492 26.2413 35.6715 26.1198C35.5953 25.9967 35.5573 25.8436 35.5573 25.6605C35.5573 25.4803 35.5983 25.3243 35.6803 25.1925C35.7638 25.0607 35.8795 24.9589 36.0275 24.8871C36.1754 24.8153 36.3483 24.7794 36.546 24.7794C36.6984 24.7794 36.8353 24.8021 36.9569 24.8475C37.08 24.8929 37.1847 24.9596 37.2711 25.0475C37.3575 25.1354 37.4235 25.2438 37.4689 25.3727C37.5158 25.5001 37.5392 25.6466 37.5392 25.8121H37.0118C37.0118 25.7184 37.0009 25.6349 36.9789 25.5616C36.9584 25.4869 36.9276 25.424 36.8866 25.3727C36.8456 25.3199 36.7958 25.2797 36.7372 25.2518C36.6801 25.224 36.6149 25.2101 36.5416 25.2101C36.4376 25.2101 36.3519 25.2299 36.2846 25.2694C36.2172 25.3075 36.1674 25.3602 36.1351 25.4276C36.1044 25.495 36.089 25.5719 36.089 25.6583C36.089 25.7418 36.1051 25.8151 36.1373 25.8781C36.1696 25.941 36.2245 25.9982 36.3021 26.0494C36.3812 26.0992 36.4896 26.1498 36.6273 26.201C36.8163 26.2684 36.9796 26.3439 37.1173 26.4274C37.2565 26.5094 37.3634 26.6112 37.4381 26.7328C37.5143 26.8529 37.5524 27.0045 37.5524 27.1876C37.5524 27.3766 37.5084 27.537 37.4205 27.6688C37.3341 27.8007 37.2125 27.901 37.0558 27.9698C36.9005 28.0372 36.7196 28.0709 36.5131 28.0709C36.3827 28.0709 36.2531 28.0541 36.1242 28.0204C35.9967 27.9852 35.881 27.9281 35.777 27.849C35.673 27.7699 35.5902 27.6652 35.5287 27.5348C35.4672 27.403 35.4364 27.2418 35.4364 27.0514H35.9681C35.9681 27.1656 35.9835 27.2609 36.0143 27.337C36.045 27.4132 36.0868 27.4733 36.1395 27.5172C36.1923 27.5612 36.2509 27.5927 36.3153 27.6117C36.3812 27.6307 36.4471 27.6403 36.5131 27.6403C36.6229 27.6403 36.7152 27.6219 36.7899 27.5853C36.8661 27.5472 36.9232 27.4945 36.9613 27.4271C37.0009 27.3583 37.0206 27.2799 37.0206 27.192ZM40.1408 24.8256V25.1156L38.8619 28.0248H38.3038L39.5804 25.2474H37.9237V24.8256H40.1408ZM42.6588 26.1571V26.6801C42.6588 26.9305 42.6339 27.1444 42.5841 27.3217C42.5358 27.4974 42.4655 27.6403 42.3732 27.7501C42.2809 27.86 42.1703 27.9406 42.0414 27.9918C41.9139 28.0431 41.7711 28.0687 41.6129 28.0687C41.4869 28.0687 41.3698 28.0526 41.2614 28.0204C41.1544 27.9882 41.0577 27.9376 40.9713 27.8688C40.8849 27.7999 40.8109 27.7113 40.7494 27.6029C40.6893 27.493 40.6425 27.3619 40.6088 27.2096C40.5765 27.0573 40.5604 26.8807 40.5604 26.6801V26.1571C40.5604 25.9052 40.5853 25.6927 40.6351 25.5199C40.6849 25.3456 40.756 25.2042 40.8483 25.0958C40.9406 24.986 41.0504 24.9061 41.1779 24.8563C41.3068 24.8065 41.4503 24.7816 41.6085 24.7816C41.736 24.7816 41.8532 24.7977 41.9601 24.83C42.0685 24.8607 42.1652 24.9098 42.2501 24.9772C42.3366 25.0446 42.4098 25.1324 42.4699 25.2408C42.5314 25.3478 42.5783 25.4774 42.6105 25.6298C42.6427 25.7806 42.6588 25.9564 42.6588 26.1571ZM42.1293 26.7548V26.078C42.1293 25.9506 42.122 25.8385 42.1073 25.7418C42.0927 25.6437 42.0707 25.5609 42.0414 25.4935C42.0136 25.4247 41.9784 25.369 41.9359 25.3265C41.8934 25.2826 41.8451 25.2511 41.7909 25.2321C41.7367 25.2115 41.6759 25.2013 41.6085 25.2013C41.5265 25.2013 41.4533 25.2174 41.3888 25.2496C41.3243 25.2804 41.2701 25.3302 41.2262 25.399C41.1823 25.4679 41.1486 25.5587 41.1251 25.6715C41.1032 25.7828 41.0922 25.9183 41.0922 26.078V26.7548C41.0922 26.8837 41.0995 26.9972 41.1141 27.0953C41.1288 27.1935 41.1508 27.2777 41.1801 27.348C41.2094 27.4169 41.2445 27.474 41.2855 27.5194C41.328 27.5634 41.3763 27.5956 41.4305 27.6161C41.4862 27.6366 41.547 27.6469 41.6129 27.6469C41.6964 27.6469 41.7704 27.6307 41.8348 27.5985C41.8993 27.5663 41.9535 27.515 41.9974 27.4447C42.0414 27.3729 42.0743 27.2799 42.0963 27.1656C42.1183 27.0514 42.1293 26.9144 42.1293 26.7548ZM45.2164 26.1571V26.6801C45.2164 26.9305 45.1915 27.1444 45.1417 27.3217C45.0934 27.4974 45.0231 27.6403 44.9308 27.7501C44.8385 27.86 44.7279 27.9406 44.599 27.9918C44.4716 28.0431 44.3287 28.0687 44.1705 28.0687C44.0446 28.0687 43.9274 28.0526 43.819 28.0204C43.712 27.9882 43.6154 27.9376 43.5289 27.8688C43.4425 27.7999 43.3685 27.7113 43.307 27.6029C43.247 27.493 43.2001 27.3619 43.1664 27.2096C43.1342 27.0573 43.118 26.8807 43.118 26.6801V26.1571C43.118 25.9052 43.1429 25.6927 43.1928 25.5199C43.2426 25.3456 43.3136 25.2042 43.4059 25.0958C43.4982 24.986 43.608 24.9061 43.7355 24.8563C43.8644 24.8065 44.0079 24.7816 44.1661 24.7816C44.2936 24.7816 44.4108 24.7977 44.5177 24.83C44.6261 24.8607 44.7228 24.9098 44.8077 24.9772C44.8942 25.0446 44.9674 25.1324 45.0275 25.2408C45.089 25.3478 45.1359 25.4774 45.1681 25.6298C45.2003 25.7806 45.2164 25.9564 45.2164 26.1571ZM44.6869 26.7548V26.078C44.6869 25.9506 44.6796 25.8385 44.6649 25.7418C44.6503 25.6437 44.6283 25.5609 44.599 25.4935C44.5712 25.4247 44.536 25.369 44.4935 25.3265C44.4511 25.2826 44.4027 25.2511 44.3485 25.2321C44.2943 25.2115 44.2335 25.2013 44.1661 25.2013C44.0841 25.2013 44.0109 25.2174 43.9464 25.2496C43.882 25.2804 43.8278 25.3302 43.7838 25.399C43.7399 25.4679 43.7062 25.5587 43.6827 25.6715C43.6608 25.7828 43.6498 25.9183 43.6498 26.078V26.7548C43.6498 26.8837 43.6571 26.9972 43.6718 27.0953C43.6864 27.1935 43.7084 27.2777 43.7377 27.348C43.767 27.4169 43.8021 27.474 43.8431 27.5194C43.8856 27.5634 43.934 27.5956 43.9882 27.6161C44.0438 27.6366 44.1046 27.6469 44.1705 27.6469C44.254 27.6469 44.328 27.6307 44.3925 27.5985C44.4569 27.5663 44.5111 27.515 44.5551 27.4447C44.599 27.3729 44.632 27.2799 44.6539 27.1656C44.6759 27.0514 44.6869 26.9144 44.6869 26.7548Z" fill="white"/>
<path d="M126.509 24.9833H127.058C127.04 25.1927 126.982 25.3795 126.882 25.5436C126.782 25.7062 126.643 25.8344 126.462 25.9281C126.282 26.0219 126.063 26.0687 125.805 26.0687C125.608 26.0687 125.43 26.0336 125.271 25.9633C125.113 25.8915 124.978 25.7904 124.865 25.66C124.752 25.5282 124.666 25.3693 124.606 25.1832C124.547 24.9972 124.518 24.7892 124.518 24.5592V24.2933C124.518 24.0634 124.548 23.8553 124.608 23.6693C124.669 23.4833 124.757 23.3243 124.872 23.1925C124.986 23.0592 125.123 22.9574 125.282 22.8871C125.444 22.8168 125.624 22.7816 125.825 22.7816C126.08 22.7816 126.295 22.8285 126.471 22.9222C126.647 23.016 126.783 23.1456 126.88 23.3112C126.978 23.4767 127.038 23.6664 127.06 23.8802H126.511C126.496 23.7426 126.464 23.6246 126.414 23.5265C126.366 23.4283 126.294 23.3536 126.199 23.3024C126.103 23.2496 125.979 23.2233 125.825 23.2233C125.699 23.2233 125.589 23.2467 125.496 23.2936C125.402 23.3405 125.323 23.4093 125.26 23.5001C125.197 23.5909 125.15 23.703 125.118 23.8363C125.087 23.9681 125.072 24.119 125.072 24.2889V24.5592C125.072 24.7203 125.085 24.8668 125.113 24.9987C125.143 25.129 125.187 25.2411 125.245 25.3348C125.305 25.4286 125.381 25.5011 125.474 25.5524C125.566 25.6036 125.676 25.6293 125.805 25.6293C125.962 25.6293 126.089 25.6044 126.186 25.5546C126.284 25.5048 126.358 25.4323 126.407 25.337C126.459 25.2404 126.492 25.1224 126.509 24.9833ZM128.805 23.2518L127.849 26.0248H127.271L128.475 22.8256H128.844L128.805 23.2518ZM129.604 26.0248L128.646 23.2518L128.605 22.8256H128.976L130.185 26.0248H129.604ZM129.558 24.8383V25.2755H127.818V24.8383H129.558ZM131.731 22.3136V22.9706H131.393V22.3136H131.731ZM131.69 25.9017V26.4906H131.353V25.9017H131.69ZM132.021 25.192C132.021 25.1071 132.004 25.0331 131.969 24.9701C131.935 24.9056 131.879 24.8478 131.802 24.7965C131.724 24.7438 131.62 24.6947 131.49 24.6493C131.302 24.5834 131.138 24.5094 130.998 24.4274C130.858 24.3439 130.75 24.2413 130.672 24.1198C130.596 23.9967 130.558 23.8436 130.558 23.6605C130.558 23.4803 130.599 23.3243 130.681 23.1925C130.765 23.0607 130.88 22.9589 131.028 22.8871C131.176 22.8153 131.349 22.7794 131.547 22.7794C131.699 22.7794 131.836 22.8021 131.958 22.8475C132.081 22.8929 132.186 22.9596 132.272 23.0475C132.358 23.1354 132.424 23.2438 132.47 23.3727C132.517 23.5001 132.54 23.6466 132.54 23.8121H132.013C132.013 23.7184 132.002 23.6349 131.98 23.5616C131.959 23.4869 131.928 23.424 131.887 23.3727C131.846 23.3199 131.797 23.2797 131.738 23.2518C131.681 23.224 131.616 23.2101 131.542 23.2101C131.438 23.2101 131.353 23.2299 131.285 23.2694C131.218 23.3075 131.168 23.3602 131.136 23.4276C131.105 23.495 131.09 23.5719 131.09 23.6583C131.09 23.7418 131.106 23.8151 131.138 23.8781C131.17 23.941 131.225 23.9982 131.303 24.0494C131.382 24.0992 131.49 24.1498 131.628 24.201C131.817 24.2684 131.98 24.3439 132.118 24.4274C132.257 24.5094 132.364 24.6112 132.439 24.7328C132.515 24.8529 132.553 25.0045 132.553 25.1876C132.553 25.3766 132.509 25.537 132.421 25.6688C132.335 25.8007 132.213 25.901 132.057 25.9698C131.901 26.0372 131.72 26.0709 131.514 26.0709C131.384 26.0709 131.254 26.0541 131.125 26.0204C130.998 25.9852 130.882 25.9281 130.778 25.849C130.674 25.7699 130.591 25.6652 130.53 25.5348C130.468 25.403 130.437 25.2418 130.437 25.0514H130.969C130.969 25.1656 130.984 25.2609 131.015 25.337C131.046 25.4132 131.088 25.4733 131.14 25.5172C131.193 25.5612 131.252 25.5927 131.316 25.6117C131.382 25.6307 131.448 25.6403 131.514 25.6403C131.624 25.6403 131.716 25.6219 131.791 25.5853C131.867 25.5472 131.924 25.4945 131.962 25.4271C132.002 25.3583 132.021 25.2799 132.021 25.192ZM134.616 22.8058H134.682V23.2386H134.645C134.456 23.2386 134.293 23.2679 134.155 23.3265C134.019 23.3851 133.907 23.4657 133.819 23.5682C133.731 23.6708 133.665 23.7909 133.621 23.9286C133.579 24.0648 133.557 24.2098 133.557 24.3636V24.8668C133.557 24.9943 133.571 25.1071 133.599 25.2052C133.627 25.3019 133.666 25.3832 133.716 25.4491C133.767 25.5135 133.825 25.5626 133.891 25.5963C133.957 25.63 134.028 25.6469 134.104 25.6469C134.184 25.6469 134.255 25.6307 134.32 25.5985C134.384 25.5648 134.439 25.5187 134.485 25.4601C134.53 25.4015 134.564 25.3319 134.588 25.2513C134.611 25.1708 134.623 25.0829 134.623 24.9877C134.623 24.8969 134.611 24.8119 134.588 24.7328C134.566 24.6522 134.533 24.5819 134.489 24.5219C134.445 24.4603 134.39 24.4127 134.324 24.379C134.26 24.3439 134.185 24.3263 134.1 24.3263C133.995 24.3263 133.899 24.3512 133.812 24.401C133.727 24.4508 133.658 24.516 133.606 24.5966C133.554 24.6757 133.527 24.7599 133.522 24.8492L133.32 24.7833C133.332 24.6471 133.362 24.5248 133.41 24.4164C133.46 24.308 133.525 24.2157 133.606 24.1395C133.686 24.0634 133.779 24.0055 133.885 23.9659C133.992 23.9249 134.109 23.9044 134.236 23.9044C134.392 23.9044 134.526 23.9337 134.641 23.9923C134.755 24.0509 134.849 24.1307 134.924 24.2318C135 24.3314 135.057 24.4457 135.093 24.5746C135.131 24.702 135.15 24.8353 135.15 24.9745C135.15 25.1283 135.127 25.2719 135.08 25.4052C135.033 25.537 134.964 25.6527 134.874 25.7523C134.784 25.8519 134.675 25.9296 134.546 25.9852C134.419 26.0409 134.274 26.0687 134.111 26.0687C133.94 26.0687 133.787 26.0358 133.652 25.9698C133.519 25.9039 133.405 25.8131 133.311 25.6974C133.219 25.5817 133.149 25.4484 133.1 25.2975C133.052 25.1466 133.028 24.9869 133.028 24.8185V24.5988C133.028 24.3556 133.059 24.1263 133.12 23.911C133.182 23.6942 133.276 23.5031 133.404 23.3375C133.532 23.172 133.697 23.0424 133.898 22.9486C134.099 22.8534 134.338 22.8058 134.616 22.8058ZM136.13 24.5372L135.708 24.434L135.882 22.8256H137.607V23.2738H136.322L136.234 24.0582C136.283 24.0289 136.352 24.0004 136.44 23.9725C136.528 23.9432 136.628 23.9286 136.741 23.9286C136.892 23.9286 137.027 23.9535 137.145 24.0033C137.266 24.0516 137.367 24.1227 137.451 24.2164C137.534 24.3087 137.598 24.4215 137.642 24.5548C137.686 24.6866 137.708 24.8353 137.708 25.0009C137.708 25.1488 137.686 25.2872 137.642 25.4161C137.6 25.545 137.535 25.6586 137.449 25.7567C137.362 25.8549 137.253 25.9318 137.121 25.9874C136.991 26.0416 136.836 26.0687 136.658 26.0687C136.524 26.0687 136.396 26.0497 136.273 26.0116C136.152 25.972 136.042 25.9142 135.946 25.838C135.849 25.7604 135.771 25.6652 135.713 25.5524C135.654 25.4381 135.621 25.307 135.612 25.1591H136.13C136.144 25.2631 136.172 25.3517 136.216 25.4249C136.261 25.4967 136.322 25.5516 136.396 25.5897C136.471 25.6278 136.557 25.6469 136.656 25.6469C136.745 25.6469 136.822 25.6315 136.886 25.6007C136.951 25.5685 137.004 25.5231 137.047 25.4645C137.091 25.4044 137.123 25.3341 137.143 25.2535C137.165 25.173 137.176 25.0836 137.176 24.9855C137.176 24.8917 137.164 24.806 137.139 24.7284C137.115 24.6508 137.08 24.5834 137.031 24.5262C136.984 24.4691 136.925 24.4252 136.853 24.3944C136.781 24.3622 136.699 24.3461 136.605 24.3461C136.479 24.3461 136.382 24.3644 136.315 24.401C136.249 24.4376 136.187 24.483 136.13 24.5372ZM140.217 24.1571V24.6801C140.217 24.9305 140.192 25.1444 140.143 25.3217C140.094 25.4974 140.024 25.6403 139.932 25.7501C139.839 25.86 139.729 25.9406 139.6 25.9918C139.472 26.0431 139.33 26.0687 139.171 26.0687C139.045 26.0687 138.928 26.0526 138.82 26.0204C138.713 25.9882 138.616 25.9376 138.53 25.8688C138.443 25.7999 138.369 25.7113 138.308 25.6029C138.248 25.493 138.201 25.3619 138.167 25.2096C138.135 25.0573 138.119 24.8807 138.119 24.6801V24.1571C138.119 23.9052 138.144 23.6927 138.194 23.5199C138.243 23.3456 138.314 23.2042 138.407 23.0958C138.499 22.986 138.609 22.9061 138.736 22.8563C138.865 22.8065 139.009 22.7816 139.167 22.7816C139.294 22.7816 139.412 22.7977 139.519 22.83C139.627 22.8607 139.724 22.9098 139.809 22.9772C139.895 23.0446 139.968 23.1324 140.028 23.2408C140.09 23.3478 140.137 23.4774 140.169 23.6298C140.201 23.7806 140.217 23.9564 140.217 24.1571ZM139.688 24.7548V24.078C139.688 23.9506 139.68 23.8385 139.666 23.7418C139.651 23.6437 139.629 23.5609 139.6 23.4935C139.572 23.4247 139.537 23.369 139.494 23.3265C139.452 23.2826 139.404 23.2511 139.349 23.2321C139.295 23.2115 139.234 23.2013 139.167 23.2013C139.085 23.2013 139.012 23.2174 138.947 23.2496C138.883 23.2804 138.829 23.3302 138.785 23.399C138.741 23.4679 138.707 23.5587 138.684 23.6715C138.662 23.7828 138.651 23.9183 138.651 24.078V24.7548C138.651 24.8837 138.658 24.9972 138.673 25.0953C138.687 25.1935 138.709 25.2777 138.739 25.348C138.768 25.4169 138.803 25.474 138.844 25.5194C138.886 25.5634 138.935 25.5956 138.989 25.6161C139.045 25.6366 139.105 25.6469 139.171 25.6469C139.255 25.6469 139.329 25.6307 139.393 25.5985C139.458 25.5663 139.512 25.515 139.556 25.4447C139.6 25.3729 139.633 25.2799 139.655 25.1656C139.677 25.0514 139.688 24.9144 139.688 24.7548Z" fill="white"/>
</svg>
