<svg width="167" height="166" viewBox="0 0 167 166" fill="none" xmlns="http://www.w3.org/2000/svg">
<path d="M83.5005 82.9691V0.852356C128.852 0.852356 165.617 37.6173 165.617 82.9691C165.617 95.5063 162.747 107.877 157.225 119.133L83.5005 82.9691Z" fill="#16585D" stroke="white"/>
<path d="M83.5004 82.9691L157.225 119.133C139.367 155.539 97.6083 173.459 58.9177 161.32L83.5004 82.9691Z" fill="#EAF7F8" stroke="white"/>
<path d="M83.5005 82.9691L58.9177 161.32C42.9139 156.299 28.8314 146.497 18.5645 133.233L83.5005 82.9691Z" fill="#C0E7EA" stroke="white"/>
<path d="M83.5004 82.9691L18.5645 133.233C1.21206 110.816 -3.35041 81.0336 6.49523 54.4495L83.5004 82.9691Z" fill="#80D0D6" stroke="white"/>
<path d="M83.5004 82.9691L6.49524 54.4495C18.426 22.2355 49.148 0.852356 83.5004 0.852356V82.9691Z" fill="#289EA7" stroke="white"/>
</svg>
