<svg id="Logo" xmlns="http://www.w3.org/2000/svg" xmlns:xlink="http://www.w3.org/1999/xlink" width="197.72" height="48.978" viewBox="0 0 197.72 48.978">
  <defs>
    <linearGradient id="linear-gradient" x1="0.5" y1="1.033" x2="0.5" y2="-0.051" gradientUnits="objectBoundingBox">
      <stop offset="0" stop-color="#4a00dc"/>
      <stop offset="1" stop-color="#c654fa"/>
    </linearGradient>
    <linearGradient id="linear-gradient-2" x1="0.189" y1="0.783" x2="0.977" y2="-0.153" gradientUnits="objectBoundingBox">
      <stop offset="0" stop-color="#2be9f5"/>
      <stop offset="1" stop-color="#0458f4"/>
    </linearGradient>
    <linearGradient id="linear-gradient-3" x1="0.648" y1="-0.001" x2="0.092" y2="1.085" xlink:href="#linear-gradient-2"/>
    <linearGradient id="linear-gradient-4" x1="0.046" y1="0.199" x2="0.748" y2="1.117" xlink:href="#linear-gradient"/>
    <linearGradient id="linear-gradient-5" x1="-0.034" y1="0.222" x2="0.998" y2="0.909" xlink:href="#linear-gradient-2"/>
  </defs>
  <g id="Group_1" data-name="Group 1" transform="translate(59.495 11.424)">
    <path id="Path_1" data-name="Path 1" d="M450.752,104.33a9.326,9.326,0,0,1,0,13.24,9.438,9.438,0,0,1-6.69,2.58,9.585,9.585,0,0,1-6.777-2.58,9.284,9.284,0,0,1,0-13.24,9.588,9.588,0,0,1,6.777-2.58A9.421,9.421,0,0,1,450.752,104.33ZM447.5,114.724a5.472,5.472,0,0,0,0-7.549,4.825,4.825,0,0,0-3.441-1.458,5.233,5.233,0,0,0,0,10.465A4.825,4.825,0,0,0,447.5,114.724Z" transform="translate(-408.314 -94.092)" fill="#081a46"/>
    <path id="Path_2" data-name="Path 2" d="M713.923,119.262h-4.635v-1.369a8.931,8.931,0,0,1-5.793,1.9,8.159,8.159,0,0,1-6.041-2.634,9.87,9.87,0,0,1,.018-13.292,8.152,8.152,0,0,1,6.023-2.652,8.733,8.733,0,0,1,5.793,1.933v-1.406h4.635v17.525Zm-6.145-4.969a5.009,5.009,0,0,0,1.51-3.775,5.069,5.069,0,0,0-1.51-3.793,4.835,4.835,0,0,0-3.477-1.476,4.693,4.693,0,0,0-3.529,1.44,5.284,5.284,0,0,0-1.388,3.829,5.224,5.224,0,0,0,1.388,3.811,4.723,4.723,0,0,0,3.529,1.422A4.865,4.865,0,0,0,707.778,114.293Z" transform="translate(-616.333 -93.661)" fill="#081a46"/>
    <path id="Path_3" data-name="Path 3" d="M807.37,121.363V103.84h4.635v17.523Z" transform="translate(-706.194 -95.762)" fill="#081a46"/>
    <path id="Path_4" data-name="Path 4" d="M875.07,103.2a6.881,6.881,0,0,1,2,5.11V119.27h-4.6V109.262a3.843,3.843,0,0,0-.983-2.757,3.25,3.25,0,0,0-2.457-1.036,3.619,3.619,0,0,0-2.984,1.353,6.31,6.31,0,0,0-1.088,4.02v8.428h-4.635V109.262a3.843,3.843,0,0,0-.983-2.757,3.254,3.254,0,0,0-2.459-1.036,3.541,3.541,0,0,0-2.95,1.335,6.455,6.455,0,0,0-1.054,4.038v8.428H848.24V101.747h4.635v1.44a7.071,7.071,0,0,1,5.232-1.967,6.531,6.531,0,0,1,5.759,2.88,7.752,7.752,0,0,1,6.391-2.88A6.586,6.586,0,0,1,875.07,103.2Z" transform="translate(-738.846 -93.669)" fill="#081a46"/>
    <rect id="Rectangle_1" data-name="Rectangle 1" width="4.776" height="23.528" transform="translate(48.005 2.073)" fill="#081a46"/>
    <rect id="Rectangle_2" data-name="Rectangle 2" width="4.635" height="23.528" transform="translate(71.112 2.073)" fill="#081a46"/>
    <path id="Path_5" data-name="Path 5" d="M316.46,81.684V86.04h7.481a6.823,6.823,0,0,1-2.494,3.986,7.272,7.272,0,0,1-4.565,1.458,7.68,7.68,0,0,1-7.8-7.833,7.664,7.664,0,0,1,2.178-5.548,7.147,7.147,0,0,1,5.337-2.248,7.385,7.385,0,0,1,6.019,2.61l3.943-2.582a9.689,9.689,0,0,0-2.974-2.7A13.485,13.485,0,0,0,316.6,71.36a11.969,11.969,0,0,0-8.78,3.565,12.4,12.4,0,0,0,.036,17.471,12.2,12.2,0,0,0,8.884,3.547,11.422,11.422,0,0,0,8.569-3.477,12.048,12.048,0,0,0,3.37-8.744c0-.539-.034-1.217-.1-2.037H316.46Z" transform="translate(-304.24 -69.814)" fill="#081a46"/>
    <path id="Path_6" data-name="Path 6" d="M581.471,97.508h5.852L578.06,85.746l9.26-11.766h-5.852l-8.162,10.366a2.262,2.262,0,0,0,0,2.8Z" transform="translate(-518.813 -71.907)" fill="#081a46"/>
    <circle id="Ellipse_1" data-name="Ellipse 1" cx="2.809" cy="2.809" r="2.809" transform="translate(100.683)" fill="#081a46"/>
  </g>
  <g id="Group_2" data-name="Group 2">
    <path id="Path_7" data-name="Path 7" d="M75.942,82.072,87.664,70.35H76.395l-10.2,10.2a2.145,2.145,0,0,0,0,3.035l10.2,10.2H87.664Z" transform="translate(-54.064 -57.583)" fill="url(#linear-gradient)"/>
    <path id="Path_8" data-name="Path 8" d="M68.765,133.363a20.506,20.506,0,0,0,20.493-19.878c.006-.211.016-.42.016-.631a24.659,24.659,0,0,0-.326-3.974H73.167a.782.782,0,0,0-.553.229L69.423,112.3a.782.782,0,0,0,0,1.106l3.191,3.191a.782.782,0,0,0,.553.229h7.678a16.544,16.544,0,0,1-32.515-2.266v.008A20.51,20.51,0,0,0,68.765,133.363Z" transform="translate(-40.296 -88.365)" fill="url(#linear-gradient-2)"/>
    <path id="Path_9" data-name="Path 9" d="M12.362,35.329A20.506,20.506,0,0,1,31.112,14.9a16.949,16.949,0,0,1,1.76-.095,16.479,16.479,0,0,1,10.31,3.61l5.641-5.641A24.486,24.486,0,1,0,31.813,55.812,20.511,20.511,0,0,1,12.362,35.329Z" transform="translate(-8.38 -6.86)" fill="url(#linear-gradient-3)"/>
    <path id="Path_10" data-name="Path 10" d="M100.627,128.64,97.5,131.769a3.542,3.542,0,0,0,0,5.009l3.581,3.581h11.269Z" transform="translate(-78.748 -104.151)" fill="url(#linear-gradient-4)"/>
    <path id="Path_11" data-name="Path 11" d="M72.978,66.125A24.5,24.5,0,0,1,49.345,87.489h-.034c-.209,0-.418.01-.631.01s-.422,0-.631-.01h-.034a20.514,20.514,0,0,1-.219-41A16.537,16.537,0,0,0,32.182,62.571c0,.143,0,.286,0,.426s0,.286,0,.426c0,.175.01.346.018.523a20.521,20.521,0,0,0,40.778,2.178Z" transform="translate(-24.182 -38.521)" fill="url(#linear-gradient-5)"/>
  </g>
</svg>
