<svg width="20" height="21" viewBox="0 0 20 21" fill="none" xmlns="http://www.w3.org/2000/svg">
<path fill-rule="evenodd" clip-rule="evenodd" d="M2.25247 5.72765C1.66669 6.31343 1.66669 7.25624 1.66669 9.14186V12.8085C1.66669 14.6941 1.66669 15.637 2.25247 16.2227C2.83826 16.8085 3.78107 16.8085 5.66669 16.8085H14.3334C16.219 16.8085 17.1618 16.8085 17.7476 16.2227C18.3334 15.637 18.3334 14.6941 18.3334 12.8085V9.14186C18.3334 7.25624 18.3334 6.31343 17.7476 5.72765C17.1618 5.14186 16.219 5.14186 14.3334 5.14186H5.66669C3.78107 5.14186 2.83826 5.14186 2.25247 5.72765ZM4.16669 6.64186C3.6144 6.64186 3.16669 7.08958 3.16669 7.64186C3.16669 8.19415 3.6144 8.64186 4.16669 8.64186H5.83335C6.38564 8.64186 6.83335 8.19415 6.83335 7.64186C6.83335 7.08958 6.38564 6.64186 5.83335 6.64186H4.16669ZM13.1667 14.3085C13.1667 13.7562 13.6144 13.3085 14.1667 13.3085H15.8334C16.3856 13.3085 16.8334 13.7562 16.8334 14.3085C16.8334 14.8608 16.3856 15.3085 15.8334 15.3085H14.1667C13.6144 15.3085 13.1667 14.8608 13.1667 14.3085ZM10.5 10.9752C10.5 11.2513 10.2762 11.4752 10 11.4752C9.72388 11.4752 9.50002 11.2513 9.50002 10.9752C9.50002 10.6991 9.72388 10.4752 10 10.4752C10.2762 10.4752 10.5 10.6991 10.5 10.9752ZM12.5 10.9752C12.5 12.3559 11.3807 13.4752 10 13.4752C8.61931 13.4752 7.50002 12.3559 7.50002 10.9752C7.50002 9.59448 8.61931 8.47519 10 8.47519C11.3807 8.47519 12.5 9.59448 12.5 10.9752Z" fill="#222222"/>
</svg>
