<svg width="20" height="21" viewBox="0 0 20 21" fill="none" xmlns="http://www.w3.org/2000/svg">
<path fill-rule="evenodd" clip-rule="evenodd" d="M1.66669 18.4752L1.66669 7.47519C1.66669 5.58957 1.66669 4.64676 2.25247 4.06098C2.83826 3.47519 3.78107 3.47519 5.66669 3.47519L13.3334 3.47519C14.0776 3.47519 14.5239 3.47519 14.8705 3.51467C13.0583 3.77909 11.6667 5.33963 11.6667 7.22519V10.142L11.5843 18.4477L9.16669 17.6418L6.66669 18.4752L4.16669 17.6418L1.66669 18.4752ZM17.1667 10.1418L13.6667 10.1418V7.22519C13.6667 6.25869 14.4502 5.47519 15.4167 5.47519C16.3832 5.47519 17.1667 6.25869 17.1667 7.22519V10.1418ZM3.16669 6.80852C3.16669 6.25624 3.6144 5.80852 4.16669 5.80852H9.16669C9.71897 5.80852 10.1667 6.25624 10.1667 6.80852C10.1667 7.36081 9.71897 7.80852 9.16669 7.80852H4.16669C3.6144 7.80852 3.16669 7.36081 3.16669 6.80852ZM3.16669 10.1419C3.16669 9.58957 3.6144 9.14186 4.16669 9.14186H5.83335C6.38564 9.14186 6.83335 9.58957 6.83335 10.1419C6.83335 10.6941 6.38564 11.1419 5.83335 11.1419H4.16669C3.6144 11.1419 3.16669 10.6941 3.16669 10.1419ZM3.16669 13.4752C3.16669 12.9229 3.6144 12.4752 4.16669 12.4752H7.50002C8.05231 12.4752 8.50002 12.9229 8.50002 13.4752C8.50002 14.0275 8.05231 14.4752 7.50002 14.4752H4.16669C3.6144 14.4752 3.16669 14.0275 3.16669 13.4752Z" fill="#222222"/>
</svg>
