<svg width="20" height="21" viewBox="0 0 20 21" fill="none" xmlns="http://www.w3.org/2000/svg">
<ellipse cx="9.99999" cy="8.47519" rx="3.33333" ry="3.33333" fill="#33363F"/>
<circle cx="14.1667" cy="8.47519" r="2.5" fill="#33363F"/>
<circle cx="5.83334" cy="8.47519" r="2.5" fill="#33363F"/>
<path fill-rule="evenodd" clip-rule="evenodd" d="M14.6404 15.9752H16.395C16.9867 15.9752 17.4406 15.4641 17.2836 14.8937C16.9439 13.6591 16.1105 11.8085 14.1667 11.8085C13.4283 11.8085 12.8501 12.0756 12.3984 12.4745C13.6548 13.2896 14.3045 14.717 14.6404 15.9752Z" fill="#33363F"/>
<path fill-rule="evenodd" clip-rule="evenodd" d="M7.60166 12.4745C7.14992 12.0756 6.57175 11.8085 5.83335 11.8085C3.88955 11.8085 3.05612 13.6591 2.71639 14.8937C2.55943 15.4641 3.01337 15.9752 3.60499 15.9752H5.35964C5.69555 14.717 6.3452 13.2896 7.60166 12.4745Z" fill="#33363F"/>
<path d="M10 12.6419C12.9747 12.6419 13.8257 15.1903 14.0691 16.6484C14.1601 17.1931 13.719 17.6419 13.1667 17.6419H6.83334C6.28106 17.6419 5.83995 17.1931 5.9309 16.6484C6.17436 15.1903 7.02535 12.6419 10 12.6419Z" fill="#33363F"/>
</svg>
