<svg width="20" height="21" viewBox="0 0 20 21" fill="none" xmlns="http://www.w3.org/2000/svg">
<path fill-rule="evenodd" clip-rule="evenodd" d="M2.54534 4.35387C1.66666 5.23255 1.66666 6.64676 1.66666 9.47519V12.4752C1.66666 15.3036 1.66666 16.7178 2.54534 17.5965C3.42402 18.4752 4.83823 18.4752 7.66666 18.4752H15C15.3095 18.4752 15.4643 18.4752 15.5948 18.4638C17.0451 18.3369 18.195 17.187 18.3219 15.7367C18.3333 15.6062 18.3333 15.4514 18.3333 15.1419H13.3333C11.9526 15.1419 10.8333 14.0226 10.8333 12.6419C10.8333 11.2611 11.9526 10.1419 13.3333 10.1419H18.3333V9.47519C18.3333 6.64676 18.3333 5.23255 17.4546 4.35387C16.576 3.47519 15.1617 3.47519 12.3333 3.47519H7.66666C4.83823 3.47519 3.42402 3.47519 2.54534 4.35387ZM5.83332 6.64186C5.28104 6.64186 4.83332 7.08957 4.83332 7.64186C4.83332 8.19414 5.28104 8.64186 5.83332 8.64186H8.33332C8.88561 8.64186 9.33332 8.19414 9.33332 7.64186C9.33332 7.08957 8.88561 6.64186 8.33332 6.64186H5.83332Z" fill="#222222"/>
<path d="M14.1667 12.6419H13.3333" stroke="#222222" stroke-width="2" stroke-linecap="round"/>
</svg>
